<?xml version="1.0" standalone="no"?>
<!DOCTYPE svg PUBLIC "-//W3C//DTD SVG 20010904//EN"
 "http://www.w3.org/TR/2001/REC-SVG-20010904/DTD/svg10.dtd">
<svg version="1.0" xmlns="http://www.w3.org/2000/svg"
 width="500.000000pt" height="500.000000pt" viewBox="0 0 500.000000 500.000000"
 preserveAspectRatio="xMidYMid meet">

<g transform="translate(0.000000,500.000000) scale(0.100000,-0.100000)"
fill="#000000" stroke="none">
<path d="M0 2500 l0 -480 2455 0 2455 0 0 480 0 480 -2455 0 -2455 0 0 -480z
m4880 0 l0 -450 -2425 0 -2425 0 0 450 0 450 2425 0 2425 0 0 -450z"/>
<path d="M130 2495 l0 -385 1180 0 1180 0 0 385 0 385 -1180 0 -1180 0 0 -385z
m514 141 c31 -13 76 -59 76 -77 0 -18 -23 -8 -50 21 -38 41 -105 43 -144 4
-59 -60 -16 -174 66 -174 33 0 76 22 91 47 10 16 37 17 37 2 0 -6 -15 -26 -34
-45 -30 -30 -40 -34 -89 -34 -45 0 -61 5 -86 25 -76 65 -59 191 33 231 40 17
59 17 100 0z m196 -51 l0 -55 70 0 70 0 0 55 c0 48 2 55 20 55 19 0 20 -7 20
-130 0 -123 -1 -130 -20 -130 -18 0 -20 7 -20 60 l0 60 -70 0 -70 0 0 -60 c0
-47 -3 -60 -15 -60 -13 0 -15 21 -15 130 0 109 2 130 15 130 12 0 15 -13 15
-55z m439 -69 c28 -69 51 -127 51 -130 0 -3 -7 -6 -16 -6 -8 0 -20 14 -25 30
-11 29 -13 30 -76 30 -63 0 -65 -1 -76 -30 -7 -18 -19 -30 -29 -30 -17 0 -17
3 -5 33 7 17 31 76 53 129 27 68 44 98 55 98 12 0 32 -36 68 -124z m212 48
l51 -76 50 76 c28 42 57 76 64 76 11 0 14 -27 14 -130 0 -107 -3 -130 -15
-130 -11 0 -15 20 -17 98 l-3 97 -38 -62 c-23 -37 -45 -63 -55 -63 -10 0 -34
27 -57 62 l-40 62 -3 -97 c-2 -77 -6 -97 -17 -97 -12 0 -15 23 -15 130 0 158
7 163 81 54z m319 -54 c0 -109 -2 -130 -15 -130 -13 0 -15 21 -15 130 0 109 2
130 15 130 13 0 15 -21 15 -130z m140 75 l0 -55 34 0 c39 0 70 31 81 80 5 21
13 30 26 30 25 0 24 -4 -11 -75 l-29 -60 35 -62 c31 -56 33 -63 16 -63 -12 0
-30 20 -52 60 -31 54 -37 60 -67 60 l-33 0 0 -60 c0 -47 -3 -60 -15 -60 -13 0
-15 21 -15 130 0 109 2 130 15 130 12 0 15 -13 15 -55z m416 -77 c45 -110 50
-128 34 -128 -10 0 -23 12 -30 30 -12 29 -15 30 -77 30 -62 0 -64 -1 -74 -30
-7 -19 -18 -30 -29 -30 -20 0 -23 -11 76 228 24 58 42 39 100 -100z"/>
<path d="M1195 2554 c-39 -91 -40 -84 16 -84 56 0 56 -1 19 83 l-18 40 -17
-39z"/>
<path d="M2272 2541 c-12 -30 -22 -58 -22 -62 0 -5 20 -9 45 -9 52 0 53 4 21
74 l-22 50 -22 -53z"/>
<path d="M2590 2554 c0 -121 22 -161 98 -177 35 -8 89 11 112 40 17 22 20 40
20 124 l0 99 -35 0 -35 0 0 -78 c0 -88 -13 -116 -51 -110 -23 3 -24 6 -27 96
l-3 92 -39 0 -40 0 0 -86z"/>
<path d="M2880 2510 l0 -130 90 0 90 0 0 35 0 35 -55 0 -55 0 0 95 0 95 -35 0
-35 0 0 -130z"/>
<path d="M3090 2554 c0 -121 22 -161 98 -177 35 -8 89 11 112 40 17 22 20 40
20 124 l0 99 -35 0 -35 0 0 -78 c0 -88 -13 -116 -51 -110 -23 3 -24 6 -27 96
l-3 92 -39 0 -40 0 0 -86z"/>
<path d="M3394 2510 l41 -131 39 3 c40 3 40 4 60 66 11 34 23 62 27 62 4 0 15
-29 25 -65 l17 -66 41 3 40 3 38 120 c21 66 38 123 38 128 0 4 -17 7 -39 7
l-38 0 -18 -65 c-9 -36 -20 -63 -24 -60 -4 2 -16 31 -26 65 -18 60 -18 60 -56
60 -37 0 -37 0 -60 -67 l-22 -68 -22 65 c-21 65 -22 65 -62 68 l-41 3 42 -131z"/>
<path d="M3863 2623 c-3 -10 -19 -52 -36 -93 -16 -41 -35 -92 -43 -112 l-13
-38 40 0 c32 0 42 4 46 20 4 16 14 20 49 20 33 0 46 -5 54 -20 8 -15 21 -20
49 -20 l39 0 -51 130 -50 130 -39 0 c-28 0 -40 -5 -45 -17z m61 -105 c10 -39
7 -48 -19 -48 -29 0 -28 -2 -14 39 13 37 24 40 33 9z"/>
<path d="M4060 2605 c0 -34 1 -35 40 -35 l40 0 0 -95 0 -95 40 0 40 0 0 94 0
95 38 3 c34 3 37 6 40 36 l3 32 -120 0 -121 0 0 -35z"/>
<path d="M4320 2605 c0 -34 1 -35 40 -35 l40 0 0 -95 0 -95 35 0 35 0 0 95 0
95 40 0 c39 0 40 1 40 35 l0 35 -115 0 -115 0 0 -35z"/>
<path d="M4613 2513 l-50 -128 36 -3 c27 -3 39 1 50 17 10 15 24 21 51 21 27
0 41 -6 51 -21 11 -16 23 -20 51 -17 l36 3 -48 125 -48 125 -39 3 -40 3 -50
-128z m106 -4 c14 -41 15 -39 -18 -39 -29 0 -29 1 -18 35 13 43 22 44 36 4z"/>
<path d="M2570 2345 c0 -13 133 -15 1135 -15 1002 0 1135 2 1135 15 0 13 -133
15 -1135 15 -1002 0 -1135 -2 -1135 -15z"/>
</g>
</svg>
